<svg id="Capa_1" data-name="Capa 1" xmlns="http://www.w3.org/2000/svg" xmlns:xlink="http://www.w3.org/1999/xlink" viewBox="0 0 87 72"><defs><style>.cls-1{fill:url(#Nueva_muestra_de_degradado_3);}.cls-2{fill:url(#Nueva_muestra_de_degradado_3-2);}</style><linearGradient id="Nueva_muestra_de_degradado_3" x1="15.47" y1="36" x2="71.53" y2="36" gradientTransform="translate(0 0)" gradientUnits="userSpaceOnUse"><stop offset="0" stop-color="#f03"/><stop offset="1" stop-color="#900"/></linearGradient><linearGradient id="Nueva_muestra_de_degradado_3-2" x1="22.14" y1="36.01" x2="33.55" y2="36.01" xlink:href="#Nueva_muestra_de_degradado_3"/></defs><title>Mesa de trabajo 3</title><path class="cls-1" d="M66.41,30.77c1.41,0,2.63,0,3.85,0,.89,0,1.27.32,1.27,1.05,0,2.8,0,5.61,0,8.41,0,.76-.46,1.05-1.29,1.05H66.41c0,1.38.06,2.7,0,4a6.48,6.48,0,0,1-.51,2.42A4.34,4.34,0,0,1,62,50c-.33,0-.66,0-1,0q-20.13,0-40.25,0c-1.66,0-3.18-.29-4.13-1.46a4.45,4.45,0,0,1-1.11-2.49c-.09-6.69-.06-13.37,0-20.06,0-2.29,2.06-3.95,4.94-4,3.19,0,6.38,0,9.56,0H61.18c3.24,0,5.22,1.64,5.23,4.33ZM61.92,46.16v-.93c0-6.19,0-12.37,0-18.56,0-.82-.32-1-1.19-1q-19.83,0-39.65,0c-.85,0-1.15.15-1.15.91,0,6.25,0,12.49,0,18.73a7.2,7.2,0,0,0,.07.8Z"/><path class="cls-2" d="M22.16,36c0-2.35,0-4.71,0-7.07,0-.67.33-.95,1.68-.93,2.64,0,5.28,0,7.92,0,1.28,0,1.81.2,1.81.9,0,4.75,0,9.49,0,14.24,0,.67-.47,1-1.77.93-2.7,0-5.39,0-8.09,0-1.14,0-1.57-.2-1.55-.82C22.19,40.8,22.16,38.39,22.16,36Z"/></svg>