<svg id="Capa_1" data-name="Capa 1" xmlns="http://www.w3.org/2000/svg" xmlns:xlink="http://www.w3.org/1999/xlink" viewBox="0 0 115 105"><defs><style>.cls-1{fill:url(#Nueva_muestra_de_degradado_3);}.cls-2{fill:url(#Nueva_muestra_de_degradado_3-2);}.cls-3{fill:url(#Nueva_muestra_de_degradado_3-3);}.cls-4{fill:url(#Nueva_muestra_de_degradado_3-4);}.cls-5{fill:url(#Nueva_muestra_de_degradado_3-5);}</style><linearGradient id="Nueva_muestra_de_degradado_3" x1="16.7" y1="59.3" x2="84.67" y2="59.3" gradientUnits="userSpaceOnUse"><stop offset="0" stop-color="#f03"/><stop offset="1" stop-color="#900"/></linearGradient><linearGradient id="Nueva_muestra_de_degradado_3-2" x1="52.48" y1="34.69" x2="98.3" y2="34.69" xlink:href="#Nueva_muestra_de_degradado_3"/><linearGradient id="Nueva_muestra_de_degradado_3-3" x1="52.43" y1="39.15" x2="89.41" y2="39.15" xlink:href="#Nueva_muestra_de_degradado_3"/><linearGradient id="Nueva_muestra_de_degradado_3-4" x1="52.48" y1="43.61" x2="80.46" y2="43.61" xlink:href="#Nueva_muestra_de_degradado_3"/><linearGradient id="Nueva_muestra_de_degradado_3-5" x1="52.48" y1="47.89" x2="71.57" y2="47.89" xlink:href="#Nueva_muestra_de_degradado_3"/></defs><title>Mesa de trabajo 3 copia 6</title><path class="cls-1" d="M81.25,73.23c-.6-.72-1.21-1.47-1.9-2.16l-1-1a38.09,38.09,0,0,0-5.12-4.61c-3.36-2.38-7-2-10.17,1A40,40,0,0,0,59.6,70a1.5,1.5,0,0,1-2.29.42,4.53,4.53,0,0,0-.54-.27l-.52-.28A54,54,0,0,1,40.13,53.6c-1.45-2.3-1.45-2.3.68-4.36a32.34,32.34,0,0,0,4.54-5.19c1.64-2.48,1.33-5-.89-7.35l-2.33-2.43L36.22,28.1c-3.32-3.44-7.43-3.71-10.72-.7a67.9,67.9,0,0,0-6.89,7.72l-.51.64a7.23,7.23,0,0,0-1.32,3.8,32.08,32.08,0,0,0,2.9,15.6c6.23,14,16.62,25.21,30.88,33.19a37.4,37.4,0,0,0,17.12,4.91l.74,0c7.39,0,13-6,15.54-11.26a5.7,5.7,0,0,0-1.1-6.93C82.3,74.51,81.79,73.89,81.25,73.23ZM23.93,55a34.68,34.68,0,0,1-3.34-13.37A6.2,6.2,0,0,1,22,36.91l1.29-1.47a57.18,57.18,0,0,1,4.93-5.15,3.51,3.51,0,0,1,2.31-1,4.06,4.06,0,0,1,2.87,1.52l.72-.69h0l-.63.79,8,8.43c1.06,1.12,1.15,1.76.39,2.87a24.18,24.18,0,0,1-2.32,2.73l-.89,1a7.45,7.45,0,0,1-.65.61L37.5,47c-2.9,2.79-3.12,4.24-1.22,7.78A46.4,46.4,0,0,0,47,67.66a64.82,64.82,0,0,0,8.57,6.25c3,1.84,4.82.94,6.83-1.11l1.12-1.16c.86-.9,1.76-1.83,2.68-2.68,1.46-1.34,2.75-1.5,4.31-.54A23.73,23.73,0,0,1,74.88,72a71.06,71.06,0,0,1,5.33,6.14,2.41,2.41,0,0,1,.32,1.69c-.64,2.47-2.46,4.22-4.39,6.08l-.27.27a10.07,10.07,0,0,1-7.2,3.15h0a31.37,31.37,0,0,1-14.32-3.5A66.73,66.73,0,0,1,23.93,55Z"/><path class="cls-2" d="M98.3,55.21v-.1A40.24,40.24,0,0,0,96,41.58C89.3,23.92,76.17,13.89,57,11.75a7.12,7.12,0,0,0-.8,0,10.9,10.9,0,0,0-2,.06c-.76.12-1.83,1-1.7,2A2.39,2.39,0,0,0,54.1,15.6a9.15,9.15,0,0,0,1.85.19l.8,0C71.32,17,82.36,24.1,89.54,36.88a38.29,38.29,0,0,1,4.82,18.29v.14A2.52,2.52,0,0,0,95,57.17a1.88,1.88,0,0,0,1.36.5h.07C98.36,57.62,98.31,55.81,98.3,55.21Z"/><path class="cls-3" d="M89.23,53.11a35,35,0,0,0-33.6-32.46h-.3a2.34,2.34,0,0,0-1.27.14,3.62,3.62,0,0,0-1,.78l-.27.25a1,1,0,0,0-.34.72,1,1,0,0,0,.3.75l.28.29a5.5,5.5,0,0,0,.93.84,1.71,1.71,0,0,0,1.19.23.85.85,0,0,1,.16,0,30.58,30.58,0,0,1,28.34,21A37.1,37.1,0,0,1,84.93,52c.17,1.19.35,2.43.59,3.64A2.77,2.77,0,0,0,86.38,57c.1.11.2.21.28.31a1,1,0,0,0,.79.39h0a1,1,0,0,0,.79-.43l.28-.36a3.28,3.28,0,0,0,.81-1.43,5.28,5.28,0,0,0,0-1.74C89.28,53.52,89.25,53.32,89.23,53.11Z"/><path class="cls-4" d="M53.72,33.27a1.65,1.65,0,0,0,1.24.27h.17A22,22,0,0,1,75.7,50a23.65,23.65,0,0,1,.51,3c.1.83.21,1.69.38,2.54A2.9,2.9,0,0,0,77.52,57c.11.11.22.22.31.33a1,1,0,0,0,.78.37h.07a1,1,0,0,0,.78-.48c.08-.13.17-.25.26-.38a3,3,0,0,0,.72-1.52,9.54,9.54,0,0,0-.12-2.15l-.09-.68C79,40.27,68.09,30,56,29.58c-.24,0-.47,0-.65,0a3,3,0,0,0-1.33.12s-1.73.74-1.49,1.95A3,3,0,0,0,53.72,33.27Z"/><path class="cls-5" d="M52.86,41.75a2.4,2.4,0,0,0,1.9.69l.26,0c7.15.59,12,5.48,12.63,12.76.08.85.87,2.23,1.9,2.37l.32,0A1.63,1.63,0,0,0,71,57.2a2.31,2.31,0,0,0,.55-1.91v-.2c-.12-8.72-7.37-16.15-16.51-16.91a1,1,0,0,0-.72.22c-.13.11-.3.21-.46.32-.56.36-1.26.81-1.37,1.6A1.75,1.75,0,0,0,52.86,41.75Z"/></svg>