<svg id="Capa_1" data-name="Capa 1" xmlns="http://www.w3.org/2000/svg" xmlns:xlink="http://www.w3.org/1999/xlink" viewBox="0 0 115 105"><defs><style>.cls-1{fill:url(#Nueva_muestra_de_degradado_3);}.cls-2{fill:url(#Nueva_muestra_de_degradado_3-2);}.cls-3{fill:url(#Nueva_muestra_de_degradado_3-3);}.cls-4{fill:url(#Nueva_muestra_de_degradado_3-4);}</style><linearGradient id="Nueva_muestra_de_degradado_3" x1="14.04" y1="52.5" x2="100.96" y2="52.5" gradientUnits="userSpaceOnUse"><stop offset="0" stop-color="#f03"/><stop offset="1" stop-color="#900"/></linearGradient><linearGradient id="Nueva_muestra_de_degradado_3-2" x1="51.77" y1="45.63" x2="63.37" y2="45.63" xlink:href="#Nueva_muestra_de_degradado_3"/><linearGradient id="Nueva_muestra_de_degradado_3-3" x1="73.88" y1="45.63" x2="85.45" y2="45.63" xlink:href="#Nueva_muestra_de_degradado_3"/><linearGradient id="Nueva_muestra_de_degradado_3-4" x1="29.63" y1="45.63" x2="41.28" y2="45.63" xlink:href="#Nueva_muestra_de_degradado_3"/></defs><title>Mesa de trabajo 3 copia 5</title><path class="cls-1" d="M34.26,76.33a28.59,28.59,0,0,1-11-6.44,27.52,27.52,0,0,1-9-18.81C14,45,13.64,38.92,15.37,33A28.83,28.83,0,0,1,42.71,12.41h29.1a28.66,28.66,0,0,1,29.1,29c0,5,.37,10-.94,14.87-3.29,12.4-14.76,21.53-27.56,21.25a34.13,34.13,0,0,0-16.53,3.61C48.06,85.09,40,88.51,32,92.14c-.35.15-.71.48-1,.45-1-.07-2.27,0-2.81-.52a3.07,3.07,0,0,1-.32-2.78c1.79-3.93,3.78-7.77,5.71-11.64C33.75,77.26,34,76.89,34.26,76.33Zm.61,8.85.31.27c.44-.18.88-.35,1.3-.54C44.65,81.19,52.8,77.43,61,73.77A10.53,10.53,0,0,1,64.77,73c2.9-.13,5.81,0,8.71-.1A23.9,23.9,0,0,0,95.37,55c1.25-4.8,1-9.71.77-14.55-.74-13.2-10.17-22.88-23-23.3-10.35-.33-20.73-.3-31.08,0A23,23,0,0,0,19.74,35.62c-1,4.75-.83,9.8-.68,14.71.21,7,3.36,12.71,8.7,17.19a23.94,23.94,0,0,0,10.3,4.87c3,.67,3.3,2.23,1.55,4.66A92.22,92.22,0,0,0,34.87,85.18Z"/><path class="cls-2" d="M57.38,51.43a5.75,5.75,0,0,1-5.6-6,5.8,5.8,0,1,1,5.6,6Z"/><path class="cls-3" d="M85.45,45.82a5.82,5.82,0,0,1-5.89,5.62,5.76,5.76,0,0,1-5.68-6,5.79,5.79,0,1,1,11.57.35Z"/><path class="cls-4" d="M35.23,51.43a5.8,5.8,0,1,1,.46-11.6,5.93,5.93,0,0,1,5.59,6A5.86,5.86,0,0,1,35.23,51.43Z"/></svg>