<svg id="Capa_1" data-name="Capa 1" xmlns="http://www.w3.org/2000/svg" xmlns:xlink="http://www.w3.org/1999/xlink" viewBox="0 0 115 105"><defs><style>.cls-1{fill:url(#Nueva_muestra_de_degradado_3);}.cls-2{fill:url(#Nueva_muestra_de_degradado_3-2);}.cls-3{fill:url(#Nueva_muestra_de_degradado_3-3);}</style><linearGradient id="Nueva_muestra_de_degradado_3" x1="14.04" y1="52.5" x2="100.96" y2="52.5" gradientUnits="userSpaceOnUse"><stop offset="0" stop-color="#f03"/><stop offset="1" stop-color="#900"/></linearGradient><linearGradient id="Nueva_muestra_de_degradado_3-2" x1="43.89" y1="48.19" x2="58.02" y2="48.19" xlink:href="#Nueva_muestra_de_degradado_3"/><linearGradient id="Nueva_muestra_de_degradado_3-3" x1="56.98" y1="40.79" x2="71.11" y2="40.79" xlink:href="#Nueva_muestra_de_degradado_3"/></defs><title>Mesa de trabajo 3 copia 3</title><path class="cls-1" d="M34.26,76.33a28.59,28.59,0,0,1-11-6.44,27.52,27.52,0,0,1-9-18.81C14,45,13.64,38.92,15.37,33A28.83,28.83,0,0,1,42.71,12.41h29.1a28.66,28.66,0,0,1,29.1,29c0,5,.37,10-.94,14.87-3.29,12.4-14.76,21.53-27.56,21.25a34.13,34.13,0,0,0-16.53,3.61C48.06,85.09,40,88.51,32,92.14c-.35.15-.71.48-1,.45-1-.07-2.27,0-2.81-.52a3.07,3.07,0,0,1-.32-2.78c1.79-3.93,3.78-7.77,5.71-11.64C33.75,77.26,34,76.89,34.26,76.33Zm.61,8.85.31.27c.44-.18.88-.35,1.3-.54C44.65,81.19,52.8,77.43,61,73.77A10.53,10.53,0,0,1,64.77,73c2.9-.13,5.81,0,8.71-.1A23.9,23.9,0,0,0,95.37,55c1.25-4.8,1-9.71.77-14.55-.74-13.2-10.17-22.88-23-23.3-10.35-.33-20.73-.3-31.08,0A23,23,0,0,0,19.74,35.62c-1,4.75-.83,9.8-.68,14.71.21,7,3.36,12.71,8.7,17.19a23.94,23.94,0,0,0,10.3,4.87c3,.67,3.3,2.23,1.55,4.66A92.22,92.22,0,0,0,34.87,85.18Z"/><path class="cls-2" d="M58,59.68a14.5,14.5,0,0,1-6.93,1.9,7.5,7.5,0,0,1-5.3-1.75,6,6,0,0,1-1.9-4.67q0-4.56,4.94-7.37l2.39-1.33.31-4a4.14,4.14,0,0,1,1.4-.19,4.55,4.55,0,0,1,1.45.19l.19,5.66-.31.42-1.82.91q-4.61,2.43-4.6,5.32a3.33,3.33,0,0,0,1,2.56,4.24,4.24,0,0,0,3,1,10.59,10.59,0,0,0,4.75-1.44,4.54,4.54,0,0,1,.91,1.25A3.68,3.68,0,0,1,58,59.68Zm-3-21a4.62,4.62,0,0,1-4.14,0,3.48,3.48,0,0,1-.3-1.69,3.69,3.69,0,0,1,.3-1.73,4.22,4.22,0,0,1,2.07-.46,4.17,4.17,0,0,1,2.07.46A3.55,3.55,0,0,1,55.29,37,3.35,3.35,0,0,1,55,38.67Z"/><path class="cls-3" d="M57,29.28a14.42,14.42,0,0,1,6.89-1.86,7.57,7.57,0,0,1,5.34,1.75,6,6,0,0,1,1.9,4.67q0,4.56-4.94,7.33L63.78,42.5l-.31,4a4.41,4.41,0,0,1-1.4.19,4.85,4.85,0,0,1-1.45-.19l-.19-5.67.31-.41,1.82-.92c3.07-1.59,4.6-3.37,4.6-5.32a3.33,3.33,0,0,0-1-2.54,4.31,4.31,0,0,0-3.08-.95,10.47,10.47,0,0,0-4.73,1.4,4.54,4.54,0,0,1-.91-1.25A3.64,3.64,0,0,1,57,29.28Zm3,21a5,5,0,0,1,4.14,0A3.62,3.62,0,0,1,64.5,52a3.14,3.14,0,0,1-.34,1.67,4.89,4.89,0,0,1-4.14,0A3.3,3.3,0,0,1,59.71,52,3.6,3.6,0,0,1,60,50.29Z"/></svg>