<svg id="Capa_1" data-name="Capa 1" xmlns="http://www.w3.org/2000/svg" xmlns:xlink="http://www.w3.org/1999/xlink" viewBox="0 0 115 105"><defs><style>.cls-1{fill:url(#Nueva_muestra_de_degradado_3);}.cls-2{fill:url(#Nueva_muestra_de_degradado_3-2);}.cls-3{fill:url(#Nueva_muestra_de_degradado_3-3);}</style><linearGradient id="Nueva_muestra_de_degradado_3" x1="17.07" y1="40.55" x2="73.33" y2="40.55" gradientUnits="userSpaceOnUse"><stop offset="0" stop-color="#f03"/><stop offset="1" stop-color="#900"/></linearGradient><linearGradient id="Nueva_muestra_de_degradado_3-2" x1="66.93" y1="76.93" x2="97.93" y2="76.93" xlink:href="#Nueva_muestra_de_degradado_3"/><linearGradient id="Nueva_muestra_de_degradado_3-3" x1="31.61" y1="28.13" x2="58.86" y2="28.13" xlink:href="#Nueva_muestra_de_degradado_3"/></defs><title>Mesa de trabajo 3 copia 4</title><path class="cls-1" d="M45.27,68.66A28.11,28.11,0,1,1,73.33,40.49,28.2,28.2,0,0,1,45.27,68.66Zm.07-49.91A21.88,21.88,0,1,0,67.13,40.58,21.89,21.89,0,0,0,45.34,18.75Z"/><path class="cls-2" d="M66.93,66.16l4.23-4.86C79.8,70,88.36,78.55,96.88,87.16a3,3,0,0,1,.06,4.47,3,3,0,0,1-4.49-.12c-3.41-3.33-6.74-6.74-10.12-10.1C77.12,76.23,71.88,71.06,66.93,66.16Z"/><path class="cls-3" d="M31.61,31.73c3.55-5,8.22-7.47,14.07-7.32a15.54,15.54,0,0,1,13.18,7.41c-2.4,0-4.32.27-6.31-1.28a11.44,11.44,0,0,0-14.23-.28C36.24,31.82,34.22,32,31.61,31.73Z"/></svg>