<svg id="Capa_1" data-name="Capa 1" xmlns="http://www.w3.org/2000/svg" viewBox="0 0 87 72"><title>Mesa de trabajo 3 copia 7</title><path d="M56.76,48.84a15.92,15.92,0,0,1-2-.86,2.59,2.59,0,0,0-3.49.2,3.15,3.15,0,0,1-1.33.75,1.69,1.69,0,0,0-1.31,1.86c0,.71-.15,1.41-.21,2.12a1.15,1.15,0,0,1-1.29,1.17H39.57a1.16,1.16,0,0,1-1.31-1.14c-.11-1-.16-1.93-.33-2.88a1.48,1.48,0,0,0-.65-.85c-.93-.59-1.93-1.07-2.85-1.67a1.11,1.11,0,0,0-1.24-.11c-.78.39-1.6.73-2.41,1.06s-1.3.25-1.78-.56q-1.86-3.21-3.71-6.42a1.15,1.15,0,0,1,.38-1.82c.72-.54,1.49-1,2.18-1.64a1.47,1.47,0,0,0,.43-1c.06-1.16.06-2.33,0-3.48a1.5,1.5,0,0,0-.45-1A26.3,26.3,0,0,0,25.59,31a1.08,1.08,0,0,1-.36-1.62l3.82-6.65a1.13,1.13,0,0,1,1.65-.52c.88.4,1.75.82,2.65,1.16a1.32,1.32,0,0,0,1-.1c1-.55,2-1.14,3-1.76a1.35,1.35,0,0,0,.6-.78c.16-.9.21-1.81.31-2.71s.44-1.34,1.49-1.34c2.45,0,4.89,0,7.34,0,1,0,1.29.3,1.4,1.31.08.79.24,1.58.26,2.37a1.31,1.31,0,0,0,.92,1.31,14.81,14.81,0,0,1,2.49,1.47,1.21,1.21,0,0,0,1.52.13c.78-.41,1.61-.71,2.4-1.08a1.1,1.1,0,0,1,1.59.51l3.86,6.72a1.05,1.05,0,0,1-.35,1.55c-.78.57-1.58,1.11-2.32,1.74a1.46,1.46,0,0,0-.42,1c-.06,1.16,0,2.32,0,3.48a1.39,1.39,0,0,0,.4.9c.74.62,1.54,1.17,2.32,1.74a1.1,1.1,0,0,1,.38,1.62c-1.3,2.23-2.57,4.48-3.89,6.7A4,4,0,0,1,56.76,48.84ZM30.45,46.41c1-.42,1.92-.79,2.81-1.22a1.52,1.52,0,0,1,1.65.21,38.46,38.46,0,0,0,3.88,2.26,1.72,1.72,0,0,1,1.13,1.6c.06.93.21,1.84.32,2.74h6.25c.1-1,.23-1.85.29-2.75A1.82,1.82,0,0,1,48,47.61a32.54,32.54,0,0,0,3.74-2.18,1.61,1.61,0,0,1,1.8-.2c.88.42,1.79.79,2.71,1.18L59.38,41c-.85-.64-1.62-1.27-2.44-1.82a1.51,1.51,0,0,1-.65-1.53c.05-1.53.06-3.06,0-4.58a1.62,1.62,0,0,1,.71-1.6c.8-.55,1.56-1.14,2.39-1.75l-3.14-5.44c-1,.44-2,.85-2.93,1.28a1.41,1.41,0,0,1-1.49-.22q-2-1.28-4.09-2.39a1.37,1.37,0,0,1-.89-1.12c-.08-.77-.24-1.53-.25-2.29s-.32-.9-1-.87c-1.22,0-2.44,0-3.67,0-1.7,0-1.69,0-1.88,1.66,0,.39-.13.79-.14,1.18a1.59,1.59,0,0,1-1,1.49A44.07,44.07,0,0,0,35,25.28a1.61,1.61,0,0,1-1.8.2c-.88-.44-1.8-.79-2.73-1.19l-3.13,5.44c.89.66,1.7,1.26,2.53,1.86a1.45,1.45,0,0,1,.57,1.4,38.89,38.89,0,0,0,0,4.58,1.64,1.64,0,0,1-.71,1.67c-.8.56-1.57,1.17-2.37,1.77Z"/><path d="M43.14,45A9.6,9.6,0,1,1,53,35.58,9.57,9.57,0,0,1,43.14,45Zm-7.35-9.61A7.56,7.56,0,0,0,43.33,43a7.59,7.59,0,1,0,.05-15.17A7.52,7.52,0,0,0,35.79,35.35Z"/></svg>